<svg xmlns="http://www.w3.org/2000/svg" viewBox="0 0 135 134"><defs><style>.cls-1{fill:#efa5a5;}.cls-2,.cls-4{fill:#696969;}.cls-3{fill:none;}.cls-3,.cls-4{stroke:#fff;stroke-linecap:round;stroke-miterlimit:10;}</style></defs><title>logo</title><g id="圖層_4" data-name="圖層 4"><path class="cls-1" d="M77.73,65.34A25.13,25.13,0,0,1,82,79.64c0,6.64-2.28,8.71-6,9.22a21.58,21.58,0,0,1-3.66.11c-1,0-2.13-.11-3.28-.18-.93-.07-1.9-.13-2.9-.16-.7,0-1.42,0-2.15,0-1.7,0-3.37.1-4.95.19-1.3.09-2.53.17-3.71.21h0a23,23,0,0,1-3.26-.08h0A8.56,8.56,0,0,1,48.86,88c-2.22-1.15-3.54-3.56-3.54-8.38A25.1,25.1,0,0,1,50,64.73a11.93,11.93,0,0,1-4-8.68,10.93,10.93,0,0,1,1.37-5.25L55.18,33l4.26,9.71a23.75,23.75,0,0,1,9.35-.05L73,33l7.24,16.5a11.28,11.28,0,0,1,2.17,6.55A12.19,12.19,0,0,1,77.73,65.34Z"/><path class="cls-1" d="M118.17,25.19A36.51,36.51,0,0,0,67,24.73h0A36.5,36.5,0,0,0,15.37,76.35h0L67,128l51.64-51.64h0A36.51,36.51,0,0,0,118.17,25.19Z"/></g><g id="圖層_1" data-name="圖層 1"><path class="cls-2" d="M82,79.64c0,6.64-2.28,8.71-6,9.22a21.58,21.58,0,0,1-3.66.11c-1,0-2.13-.11-3.28-.18-.93-.07-1.9-.13-2.9-.16-.7,0-1.42,0-2.15,0-1.7,0-3.37.1-4.95.19-1.3.09-2.53.17-3.71.21h0a23,23,0,0,1-3.26-.08h0A8.56,8.56,0,0,1,48.86,88c-2.22-1.15-3.54-3.56-3.54-8.38A25.1,25.1,0,0,1,50,64.73c3.36-4.53,8.23-7.38,13.64-7.38,5.65,0,10.71,3.11,14.06,8A25.13,25.13,0,0,1,82,79.64Z"/><path class="cls-2" d="M82.44,56.05a12.19,12.19,0,0,1-4.71,9.29,21.14,21.14,0,0,1-13.51,4.55A20.76,20.76,0,0,1,50,64.73a11.93,11.93,0,0,1-4-8.68,10.93,10.93,0,0,1,1.37-5.25L55.18,33l4.26,9.71a23.75,23.75,0,0,1,9.35-.05L73,33l7.24,16.5A11.28,11.28,0,0,1,82.44,56.05Z"/><path class="cls-3" d="M57.07,54.12l-2.47,1.18"/><path class="cls-3" d="M70.92,54.12l2.47,1.18"/><path class="cls-3" d="M63.08,57.77l.89.15"/><path class="cls-4" d="M60.13,59.23a2.78,2.78,0,0,0,.78,1.71,1.3,1.3,0,0,0,.61.38,1.42,1.42,0,0,0,1-.25A4.26,4.26,0,0,0,63.77,60c.28.52.23,1.22.69,1.6a1.45,1.45,0,0,0,.64.26A2.64,2.64,0,0,0,67,61.62,1.44,1.44,0,0,0,67.66,60"/><ellipse class="cls-2" cx="56.25" cy="86.77" rx="6.75" ry="5.27"/><path class="cls-2" d="M79,87.77C79,90.68,76,93,72.25,93s-6.55-2.21-6.74-5q0-.14,0-.29c0-2.91,3-5.27,6.75-5.27S79,84.86,79,87.77Z"/></g></svg>