<svg xmlns="http://www.w3.org/2000/svg" viewBox="0 0 147 134"><defs><style>.cls-1{fill:#efa5a5;}.cls-2,.cls-3{fill:#696969;}.cls-3{stroke:#fff;stroke-linecap:round;stroke-miterlimit:10;}.cls-4{fill:#ccc;}</style></defs><title>logo</title><g id="圖層_4" data-name="圖層 4"><path class="cls-1" d="M128.17,23.19A36.51,36.51,0,0,0,77,22.73h0A36.5,36.5,0,0,0,25.37,74.35h0L77,126l51.64-51.64h0A36.51,36.51,0,0,0,128.17,23.19Z"/></g><g id="圖層_1" data-name="圖層 1"><path class="cls-2" d="M89,69.72c0,19.87-13.46,25.92-21.66,25.92s-8.61-6.82-8.61-26.7S59,32.19,67.18,32.19,89,49.84,89,69.72Z"/><path class="cls-2" d="M68.42,25c-.72.13-1.45.21-2.17.32a16.2,16.2,0,0,1-1.67.38,2.89,2.89,0,0,0-.64.44c-.19.16-1,.5-1,.7a1.13,1.13,0,0,1-.65.76C60,31.11,55.9,33.29,51.38,34.48A6.12,6.12,0,0,0,50.83,37C51.89,42.09,58.23,46,65.9,46c8.41,0,15.22-4.74,15.22-10.6C81.12,30.19,75.63,25.84,68.42,25Z"/><path class="cls-3" d="M66.88,28.08s1.91,6.83-1.62,7.94-.29,4.6,3.68,6.55,6-.42,6-2.37a49.17,49.17,0,0,0-1-6.69s-1.62-2.79-.44-3.9"/><path class="cls-4" d="M65.38,90.51c6.24,3.78,16.49,5.58,30.62,5.38"/><path class="cls-2" d="M63.11,94.39C72.9,100,85,100.47,96,100.39c5.79,0,5.8-9,0-9-9.36.07-20,0-28.34-4.77-5-2.89-9.57,4.89-4.54,7.77Z"/><path class="cls-3" d="M60.48,31.44a2.5,2.5,0,0,1,1.81,1"/></g></svg>